<svg width="90" height="77" viewBox="0 0 90 77" fill="none" xmlns="http://www.w3.org/2000/svg">
<path d="M36.8125 49L37.1172 47.125L32.8281 46.3281L34.3047 26.3359L42.3438 48.2734L45.3438 47.8281L54.2734 25.4688L55.5859 46.1641L51.6953 47.2656L51.4375 49H64L64.2344 47.125L59.9688 46.3281L58.75 22.5156L62.6875 21.625L62.9219 19.8438H53.6641L52 23.6172L44.8047 41.6641L38.6641 24.3906L36.8359 19.8438H27.3906L27.1562 21.625L31.4453 22.6094L29.7344 46.1641L25.8203 47.2656L25.5625 49H36.8125Z" fill="white"/>
<path d="M4.00195 74L4.08447 73.4922L2.92285 73.2764L3.32275 67.8618L5.5 73.8032L6.3125 73.6826L8.73096 67.627L9.08643 73.2319L8.03271 73.5303L7.96289 74H11.3652L11.4287 73.4922L10.2734 73.2764L9.94336 66.8271L11.0098 66.5859L11.0732 66.1035H8.56592L8.11523 67.1255L6.1665 72.0132L4.50342 67.335L4.0083 66.1035H1.4502L1.38672 66.5859L2.54834 66.8525L2.08496 73.2319L1.0249 73.5303L0.955078 74H4.00195ZM15.4023 74.1714C16.2487 74.1714 16.9829 73.9852 17.605 73.6128C18.2271 73.2404 18.701 72.7432 19.0269 72.1211C19.3527 71.4948 19.5156 70.8114 19.5156 70.0708C19.5156 69.3218 19.3675 68.632 19.0713 68.0015C18.7751 67.3667 18.3477 66.8631 17.7891 66.4907C17.2347 66.1141 16.5872 65.9258 15.8467 65.9258C15.0173 65.9258 14.2936 66.1014 13.6758 66.4526C13.0579 66.7996 12.5819 67.2863 12.2476 67.9126C11.9175 68.5389 11.7524 69.2583 11.7524 70.0708C11.7524 70.8325 11.9048 71.5265 12.2095 72.1528C12.5142 72.7749 12.9437 73.2679 13.498 73.6318C14.0524 73.9915 14.6872 74.1714 15.4023 74.1714ZM15.542 66.5352C16.1175 66.5352 16.5978 66.7214 16.9829 67.0938C17.368 67.4661 17.6515 67.9443 17.8335 68.5283C18.0155 69.1123 18.1064 69.7238 18.1064 70.3628C18.1064 71.2726 17.9287 72.0238 17.5732 72.6162C17.2178 73.2044 16.5999 73.4985 15.7197 73.4985C15.14 73.4985 14.6576 73.3208 14.2725 72.9653C13.8916 72.6056 13.6102 72.138 13.4282 71.5625C13.2505 70.987 13.1616 70.3691 13.1616 69.709C13.1616 67.5931 13.9551 66.5352 15.542 66.5352ZM23.1909 74C24.2319 74 25.1164 73.8117 25.8442 73.4351C26.5721 73.0542 27.118 72.5506 27.4819 71.9243C27.8501 71.2938 28.0342 70.604 28.0342 69.855C28.0342 69.144 27.8924 68.5029 27.6089 67.9316C27.3254 67.3604 26.8429 66.8991 26.1616 66.5479C25.4845 66.1924 24.5832 66.0146 23.4575 66.0146C22.6027 66.0146 21.5173 66.1183 20.2012 66.3257L20.144 66.8081L21.2358 66.9985V73.1812L20.144 73.5303L20.0552 74H23.1909ZM22.4482 66.6938C22.6175 66.6769 22.8757 66.6685 23.2227 66.6685C23.9759 66.6685 24.6128 66.825 25.1333 67.1382C25.6538 67.4471 26.0431 67.8703 26.3013 68.4077C26.5636 68.9409 26.6948 69.5397 26.6948 70.2041C26.6948 70.7881 26.57 71.3171 26.3203 71.791C26.0749 72.265 25.7025 72.6416 25.2031 72.9209C24.7038 73.2002 24.0923 73.3398 23.3687 73.3398H22.4482V66.6938ZM29.6592 66.8525V73.2319L28.5991 73.5303L28.5483 74H34.9912L35.1816 72.0132L34.6548 71.9307L34.0327 73.3906H30.8906V70.2993H32.6299L32.8457 71.4102L33.3853 71.3276L33.6011 68.8584L32.998 68.9473L32.7314 69.709H30.8906V66.6875H33.8804L34.1406 68.0522L34.6929 68.1348L34.8896 66.1035H28.5737L28.5039 66.5859L29.6592 66.8525ZM41.6689 74L41.9038 71.8989L41.3643 71.8164L40.5327 73.3906H37.7271V66.8843L38.8125 66.5859L38.876 66.1035H35.3848L35.3022 66.5859L36.4956 66.9097V73.2319L35.4419 73.5303L35.3848 74H41.6689ZM46.5312 74L46.6011 73.4922L45.4204 73.2129L46.0615 71.2578H48.7212L49.4131 73.1812L48.3276 73.5303L48.2515 74H51.5205L51.5776 73.4922L50.708 73.2129L48.2324 65.9512L47.2739 66.1479L44.5635 73.1812L43.6177 73.5303L43.5605 74H46.5312ZM47.4834 67.4365L48.5371 70.6104H46.3027L47.4834 67.4365ZM56.0146 74.1968C56.6621 74.1968 57.2292 74.1418 57.7158 74.0317C58.2067 73.9217 58.6574 73.744 59.0679 73.4985V71.2134L59.855 70.9531L59.9312 70.4771H56.4019L56.3257 71.0039L57.8237 71.2451V73.2446C57.7052 73.3123 57.5487 73.3737 57.354 73.4287C57.1636 73.4837 56.9562 73.5112 56.7319 73.5112C56.0845 73.5112 55.5238 73.3441 55.0498 73.0098C54.5758 72.6755 54.214 72.2332 53.9644 71.6831C53.7147 71.133 53.5898 70.5363 53.5898 69.8931C53.5898 69.1483 53.702 68.5326 53.9263 68.0459C54.1548 67.5592 54.4595 67.2017 54.8403 66.9731C55.2254 66.7446 55.6571 66.6304 56.1353 66.6304C56.6092 66.6304 57.0133 66.7044 57.3477 66.8525C57.6862 66.9964 57.9486 67.1636 58.1348 67.354L58.3633 68.5664L58.9155 68.6616L59.0679 66.6177C58.759 66.423 58.3866 66.2728 57.9507 66.167C57.5148 66.057 57.0366 66.002 56.5161 66.002C55.7798 66.002 55.0815 66.1776 54.4214 66.5288C53.7655 66.88 53.2344 67.3836 52.8281 68.0396C52.4261 68.6955 52.2251 69.4593 52.2251 70.3311C52.2251 71.0716 52.3669 71.7339 52.6504 72.3179C52.9339 72.8976 53.3592 73.3568 53.9263 73.6953C54.4933 74.0296 55.1895 74.1968 56.0146 74.1968ZM61.4102 66.8525V73.2319L60.3501 73.5303L60.2993 74H66.7422L66.9326 72.0132L66.4058 71.9307L65.7837 73.3906H62.6416V70.2993H64.3809L64.5967 71.4102L65.1362 71.3276L65.3521 68.8584L64.749 68.9473L64.4824 69.709H62.6416V66.6875H65.6313L65.8916 68.0522L66.4438 68.1348L66.6406 66.1035H60.3247L60.2549 66.5859L61.4102 66.8525ZM68.2402 66.9097V73.2319L67.1802 73.5303L67.1294 74H70.1445L70.2144 73.4922L69.0527 73.2764V67.8999L73.2612 74.1904L74.2324 73.9937V66.8271L75.2925 66.5859L75.375 66.1035H72.3599L72.2837 66.5859L73.458 66.8525V72.2607L69.3765 66.1035H67.1548L67.085 66.5859L68.2402 66.9097ZM79.3931 74.1523C79.8078 74.1523 80.2056 74.0868 80.5864 73.9556C80.9715 73.8244 81.3122 73.6593 81.6084 73.4604C81.9046 73.2573 82.1437 73.0457 82.3257 72.8257L82.1035 72.3433C81.8031 72.6183 81.4561 72.8468 81.0625 73.0288C80.6732 73.2065 80.2796 73.2954 79.8818 73.2954C79.3656 73.2954 78.8895 73.1621 78.4536 72.8955C78.0177 72.6247 77.6665 72.229 77.3999 71.7085C77.1375 71.1838 77.0063 70.5553 77.0063 69.8232C77.0063 69.1589 77.11 68.5791 77.3174 68.084C77.5247 67.5889 77.8062 67.2101 78.1616 66.9478C78.5213 66.6812 78.9233 66.5479 79.3677 66.5479C79.757 66.5479 80.0871 66.6071 80.3579 66.7256C80.633 66.8441 80.8488 67.0049 81.0054 67.208L81.272 68.6045L81.8306 68.687L82.0273 66.5796C81.7396 66.3595 81.3968 66.1987 80.999 66.0972C80.6012 65.9956 80.1781 65.9448 79.7295 65.9448C78.8197 65.9448 78.0579 66.1649 77.4443 66.605C76.8307 67.0409 76.3779 67.591 76.0859 68.2554C75.7939 68.9155 75.6479 69.5841 75.6479 70.2612C75.6479 71.0737 75.8193 71.7741 76.1621 72.3623C76.5091 72.9505 76.9683 73.397 77.5396 73.7017C78.1108 74.0021 78.7287 74.1523 79.3931 74.1523ZM83.062 66.8525L85.3027 70.8008V73.2319L84.3506 73.5303L84.2871 74H87.499L87.5625 73.4922L86.5278 73.2764V70.6421L88.7178 66.8271L89.5112 66.5859L89.5747 66.1035H86.75L86.6865 66.5859L87.8481 66.8525L86.1724 69.9375L84.4141 66.8271L85.417 66.5859L85.4932 66.1035H82.2686L82.186 66.5859L83.062 66.8525Z" fill="white" fill-opacity="0.45"/>
</svg>
